<svg xmlns:rdf="http://www.w3.org/1999/02/22-rdf-syntax-ns#" xmlns="http://www.w3.org/2000/svg" height="30.48mm" width="51.082mm" version="1.1" xmlns:cc="http://creativecommons.org/ns#" xmlns:dc="http://purl.org/dc/elements/1.1/" viewBox="0 0 181 108">
 <g transform="translate(-229.5 -335.51)">
  <rect style="color-rendering:auto;color:#000000;isolation:auto;mix-blend-mode:normal;shape-rendering:auto;solid-color:#000000;image-rendering:auto" rx="0" ry="0" height="108" width="181" y="335.51" x="229.5" fill="#ffffff"/>
  <g transform="matrix(.98261 0 0 -.98261 -464.76 760.67)">
   <g transform="matrix(.39992 0 0 .39992 630.51 227.03)">
    <g transform="translate(323.08 511.64)">
     <path d="m0 0-129.58-129.59v129.59h129.58z" fill="#00b8de"/>
    </g>
    <g transform="translate(452.67 511.64)">
     <path d="m0 0v-129.59h-129.59v129.59l64.795-64.795 64.795 64.795z" fill="#00b8de"/>
    </g>
    <g transform="translate(517.47 382.05)">
     <path d="m0 0v64.795h-64.795l64.795 64.795h129.58l-129.58-129.59z" fill="#00b8de"/>
    </g>
    <path d="m193.5 359.06h7.187v-32.685h-7.187v32.685z" fill="#000000"/>
    <g transform="translate(206.71 359.07)">
     <path d="m0 0h10.116l7.645-22.477h0.092l7.232 22.477h10.117v-32.685h-6.729v23.164h-0.092l-8.011-23.164h-5.538l-8.012 22.935h-0.091v-22.935h-6.729v32.685z" fill="#000000"/>
    </g>
    <g transform="translate(254.85 353.02)">
     <path d="m0 0h-9.796v6.043h26.779v-6.043h-9.796v-26.642h-7.187v26.642z" fill="#000000"/>
    </g>
    <g transform="translate(286.94 359.07)">
     <path d="m0 0h7.187v-26.642h15.93v-6.043h-23.117v32.685z" fill="#000000"/>
    </g>
    <path d="m313.08 350.05h6.5v-23.667h-6.5v23.667zm6.5 3.662h-6.5v5.356h6.5v-5.356z" fill="#000000"/>
    <path d="m324.65 359.06h6.5v-32.685h-6.5v32.685z" fill="#000000"/>
    <path d="m336.22 359.06h6.5v-32.685h-6.5v32.685z" fill="#000000"/>
    <g transform="translate(363.69 340.75)">
     <path d="m0 0c-0.595 3.296-2.014 5.035-5.172 5.035-4.12 0-5.31-3.204-5.402-5.035h10.574zm-10.574-4.12c0.183-4.12 2.197-5.997 5.813-5.997 2.61 0 4.716 1.602 5.127 3.067h5.722c-1.831-5.585-5.722-7.965-11.077-7.965-7.462 0-12.085 5.127-12.085 12.452 0 7.095 4.898 12.496 12.085 12.496 8.056 0 11.947-6.775 11.489-14.053h-17.074z" fill="#000000"/>
    </g>
    <g transform="translate(394.63 332.42)">
     <path d="m0 0h6.408c4.166 0 8.149 2.563 8.149 9.796 0 6.592-2.289 10.803-9.43 10.803h-5.127v-20.599zm-7.187 26.642h14.099c8.469 0 14.832-5.31 14.832-16.159 0-9.476-4.853-16.525-14.832-16.525h-14.099v32.684z" fill="#000000"/>
    </g>
    <g transform="translate(431.77 330.64)">
     <path d="m0 0c4.44 0 5.769 3.799 5.769 7.553 0 3.8-1.329 7.599-5.769 7.599-4.395 0-5.722-3.799-5.722-7.599 0-3.754 1.327-7.553 5.722-7.553m0 20.05c7.462 0 12.269-4.944 12.269-12.497 0-7.508-4.807-12.451-12.269-12.451-7.415 0-12.222 4.943-12.222 12.451 0 7.553 4.807 12.497 12.222 12.497" fill="#000000"/>
    </g>
    <g transform="translate(470.09 326.38)">
     <path d="m0 0h-6.18v3.296h-0.137c-1.649-2.655-4.487-3.937-7.233-3.937-6.913 0-8.652 3.891-8.652 9.75v14.558h6.501v-13.367c0-3.891 1.143-5.814 4.165-5.814 3.524 0 5.035 1.969 5.035 6.775v12.406h6.501v-23.667z" fill="#000000"/>
    </g>
    <g transform="translate(489.78 337.96)">
     <path d="m0 0c-1.099-0.961-3.388-1.007-5.401-1.374-2.015-0.412-3.846-1.098-3.846-3.479 0-2.426 1.877-3.021 3.982-3.021 5.081 0 5.265 4.029 5.265 5.448v2.426zm-15.015 4.806c0.367 6.089 5.814 7.92 11.124 7.92 4.715 0 10.391-1.053 10.391-6.729v-12.314c0-2.152 0.229-4.303 0.824-5.265h-6.592c-0.228 0.733-0.412 1.511-0.458 2.29-2.059-2.152-5.081-2.93-7.964-2.93-4.487 0-8.057 2.243-8.057 7.095 0 5.356 4.028 6.637 8.057 7.187 3.982 0.595 7.69 0.458 7.69 3.112 0 2.793-1.923 3.205-4.211 3.205-2.473 0-4.074-1.007-4.304-3.571h-6.5z" fill="#000000"/>
    </g>
    <path d="m501.37 350.05h6.5v-23.667h-6.5v23.667zm6.5 3.662h-6.5v5.356h6.5v-5.356z" fill="#000000"/>
    <g transform="translate(206.61 317.41)">
     <path d="m0 0-4.563-4.939h-2.358l3.127 4.939h3.794zm-13.125-6.921h18.218v-3.077h-14.903v-7.622h13.775v-2.905h-13.775v-8.511h15.159v-2.99h-18.474v25.105z" fill="#000000"/>
    </g>
    <g transform="translate(227.2 302.71)">
     <path d="m0 0c1.293-1.003 2.071-2.729 2.333-5.178h-2.991c-0.182 1.128-0.598 2.065-1.247 2.811-0.65 0.746-1.692 1.119-3.128 1.119-1.96 0-3.361-0.956-4.204-2.867-0.547-1.24-0.82-2.771-0.82-4.592 0-1.832 0.387-3.374 1.162-4.625 0.774-1.252 1.994-1.878 3.657-1.878 1.276 0 2.287 0.389 3.034 1.166 0.746 0.777 1.261 1.841 1.546 3.191h2.991c-0.342-2.425-1.196-4.201-2.563-5.323-1.368-1.122-3.117-1.682-5.247-1.682-2.393 0-4.301 0.874-5.725 2.623-1.424 1.748-2.136 3.932-2.136 6.553 0 3.213 0.78 5.714 2.341 7.503 1.56 1.788 3.549 2.683 5.964 2.683 2.062 0 3.74-0.502 5.033-1.504" fill="#000000"/>
    </g>
    <g transform="translate(244.02 289.69)">
     <path d="m0 0c0.75 1.542 1.124 3.257 1.124 5.146 0 1.707-0.27 3.095-0.811 4.165-0.856 1.684-2.332 2.526-4.428 2.526-1.859 0-3.21-0.716-4.055-2.15-0.845-1.435-1.268-3.164-1.268-5.189 0-1.946 0.423-3.568 1.268-4.865s2.185-1.946 4.022-1.946c2.016 0 3.399 0.771 4.148 2.313m1.91 12.164c1.618-1.571 2.427-3.882 2.427-6.933 0-2.948-0.713-5.383-2.138-7.307-1.426-1.924-3.637-2.886-6.636-2.886-2.5 0-4.485 0.851-5.956 2.553-1.471 1.701-2.206 3.986-2.206 6.855 0 3.074 0.775 5.521 2.325 7.343 1.549 1.821 3.631 2.732 6.245 2.732 2.342 0 4.321-0.786 5.939-2.357" fill="#000000"/>
    </g>
    <path d="m251.8 310.49h3.076v-25.105h-3.076v25.105z" fill="#000000"/>
    <g transform="translate(271.55 295.99)">
     <path d="m0 0c-0.125 1.333-0.413 2.397-0.864 3.195-0.836 1.481-2.232 2.222-4.186 2.222-1.401 0-2.576-0.51-3.525-1.529-0.949-1.02-1.452-2.316-1.508-3.888h10.083zm-1.102 7.186c1.212-0.61 2.135-1.399 2.769-2.367 0.611-0.923 1.019-2 1.223-3.23 0.181-0.843 0.272-2.188 0.272-4.033h-13.313c0.056-1.863 0.491-3.357 1.305-4.482s2.075-1.687 3.782-1.687c1.593 0 2.865 0.531 3.815 1.595 0.531 0.619 0.908 1.334 1.129 2.147h3.025c-0.08-0.673-0.344-1.422-0.795-2.247-0.45-0.826-0.952-1.502-1.506-2.026-0.927-0.912-2.075-1.526-3.442-1.845-0.736-0.182-1.567-0.274-2.494-0.274-2.264 0-4.183 0.829-5.757 2.487s-2.361 3.979-2.361 6.964c0 2.939 0.793 5.326 2.378 7.161 1.585 1.834 3.657 2.751 6.217 2.751 1.291 0 2.542-0.305 3.753-0.914" fill="#000000"/>
    </g>
    <g transform="translate(288.66 310.49)">
     <path d="m0 0h4.872l7.219-21.226 7.168 21.226h4.838v-25.105h-3.247v14.817c0 0.513 0.011 1.361 0.034 2.546 0.022 1.185 0.034 2.455 0.034 3.811l-7.168-21.174h-3.37l-7.235 21.174v-0.769c0-0.615 0.017-1.552 0.051-2.811s0.051-2.185 0.051-2.777v-14.817h-3.247v25.105z" fill="#000000"/>
    </g>
    <path d="m317.21 303.6h3.127v-18.218h-3.127v18.218zm0 6.887h3.127v-3.486h-3.127v3.486z" fill="#000000"/>
    <g transform="translate(324.51 303.68)">
     <path d="m0 0h2.922v-2.598c0.866 1.071 1.783 1.84 2.752 2.307 0.968 0.467 2.045 0.701 3.23 0.701 2.597 0 4.352-0.906 5.263-2.717 0.501-0.991 0.752-2.41 0.752-4.255v-11.741h-3.127v11.535c0 1.117-0.166 2.017-0.496 2.701-0.546 1.139-1.538 1.709-2.973 1.709-0.73 0-1.328-0.075-1.795-0.223-0.843-0.251-1.584-0.752-2.221-1.503-0.513-0.604-0.846-1.228-1-1.872s-0.231-1.564-0.231-2.759v-9.588h-3.076v18.303z" fill="#000000"/>
    </g>
    <g transform="translate(355.98 295.99)">
     <path d="m0 0c-0.125 1.333-0.413 2.397-0.864 3.195-0.836 1.481-2.232 2.222-4.186 2.222-1.401 0-2.576-0.51-3.525-1.529-0.949-1.02-1.452-2.316-1.508-3.888h10.083zm-1.102 7.186c1.212-0.61 2.135-1.399 2.769-2.367 0.611-0.923 1.019-2 1.223-3.23 0.181-0.843 0.272-2.188 0.272-4.033h-13.313c0.056-1.863 0.491-3.357 1.305-4.482s2.075-1.687 3.782-1.687c1.593 0 2.865 0.531 3.815 1.595 0.531 0.619 0.908 1.334 1.129 2.147h3.025c-0.08-0.673-0.344-1.422-0.795-2.247-0.45-0.826-0.952-1.502-1.506-2.026-0.927-0.912-2.075-1.526-3.442-1.845-0.736-0.182-1.567-0.274-2.494-0.274-2.264 0-4.183 0.829-5.757 2.487s-2.361 3.979-2.361 6.964c0 2.939 0.793 5.326 2.378 7.161 1.585 1.834 3.657 2.751 6.217 2.751 1.291 0 2.542-0.305 3.753-0.914" fill="#000000"/>
    </g>
    <g transform="translate(364.35 291.12)">
     <path d="m0 0c0.093-1.025 0.354-1.812 0.785-2.358 0.791-0.992 2.163-1.488 4.116-1.488 1.163 0 2.186 0.248 3.07 0.744s1.326 1.262 1.326 2.299c0 0.785-0.354 1.384-1.06 1.794-0.451 0.25-1.343 0.541-2.674 0.872l-2.484 0.616c-1.586 0.386-2.756 0.82-3.508 1.298-1.343 0.831-2.015 1.982-2.015 3.452 0 1.731 0.632 3.133 1.897 4.204 1.264 1.071 2.964 1.607 5.1 1.607 2.794 0 4.809-0.81 6.044-2.427 0.774-1.026 1.149-2.131 1.127-3.316h-2.906c-0.058 0.691-0.309 1.32-0.752 1.887-0.723 0.804-1.977 1.207-3.761 1.207-1.19 0-2.091-0.222-2.703-0.664-0.612-0.443-0.918-1.028-0.918-1.754 0-0.795 0.402-1.431 1.207-1.908 0.463-0.284 1.149-0.534 2.054-0.75l2.072-0.496c2.252-0.536 3.761-1.053 4.527-1.555 1.197-0.785 1.795-2.023 1.795-3.708 0-1.63-0.626-3.036-1.878-4.222-1.251-1.185-3.157-1.777-5.718-1.777-2.757 0-4.709 0.619-5.857 1.854-1.147 1.236-1.762 2.766-1.843 4.589h2.957z" fill="#000000"/>
    </g>
    <path d="m380.59 296.71h8.579v-3.162h-8.579v3.162z" fill="#000000"/>
    <g transform="translate(407.54 310.49)">
     <path d="m0 0v-2.991h-8.459v-22.114h-3.436v22.114h-8.459v2.991h20.354z" fill="#000000"/>
    </g>
    <g transform="translate(416.61 311.05)">
     <path d="m0 0-4.563-4.939h-2.358l3.127 4.939h3.794zm1.23-15.056c-0.124 1.333-0.412 2.398-0.864 3.196-0.836 1.481-2.231 2.221-4.185 2.221-1.401 0-2.577-0.51-3.525-1.529-0.949-1.02-1.452-2.316-1.509-3.888h10.083zm-1.101 7.186c1.211-0.609 2.134-1.399 2.768-2.367 0.612-0.923 1.019-1.999 1.223-3.23 0.181-0.843 0.272-2.187 0.272-4.033h-13.313c0.057-1.862 0.492-3.356 1.306-4.481s2.074-1.688 3.781-1.688c1.594 0 2.866 0.531 3.815 1.596 0.532 0.618 0.908 1.334 1.13 2.146h3.025c-0.08-0.673-0.345-1.422-0.795-2.247-0.45-0.826-0.952-1.502-1.506-2.025-0.927-0.912-2.075-1.527-3.443-1.846-0.735-0.182-1.566-0.273-2.493-0.273-2.265 0-4.184 0.829-5.758 2.486-1.574 1.658-2.36 3.979-2.36 6.964 0 2.94 0.792 5.326 2.378 7.161 1.585 1.834 3.657 2.751 6.216 2.751 1.291 0 2.542-0.305 3.754-0.914" fill="#000000"/>
    </g>
    <path d="m424.44 310.49h3.076v-25.105h-3.076v25.105z" fill="#000000"/>
    <g transform="translate(442.97 311.05)">
     <path d="m0 0-4.563-4.939h-2.358l3.127 4.939h3.794zm1.23-15.056c-0.124 1.333-0.412 2.398-0.864 3.196-0.836 1.481-2.231 2.221-4.185 2.221-1.402 0-2.577-0.51-3.526-1.529-0.948-1.02-1.451-2.316-1.508-3.888h10.083zm-1.101 7.186c1.211-0.609 2.134-1.399 2.768-2.367 0.612-0.923 1.019-1.999 1.223-3.23 0.182-0.843 0.272-2.187 0.272-4.033h-13.313c0.057-1.862 0.492-3.356 1.306-4.481s2.074-1.688 3.781-1.688c1.594 0 2.866 0.531 3.815 1.596 0.532 0.618 0.909 1.334 1.129 2.146h3.026c-0.08-0.673-0.345-1.422-0.795-2.247-0.45-0.826-0.952-1.502-1.506-2.025-0.928-0.912-2.075-1.527-3.443-1.846-0.735-0.182-1.566-0.273-2.494-0.273-2.263 0-4.183 0.829-5.756 2.486-1.575 1.658-2.362 3.979-2.362 6.964 0 2.94 0.793 5.326 2.378 7.161 1.586 1.834 3.657 2.751 6.217 2.751 1.291 0 2.542-0.305 3.754-0.914" fill="#000000"/>
    </g>
    <g transform="translate(463.05 302.71)">
     <path d="m0 0c1.293-1.003 2.07-2.729 2.333-5.178h-2.99c-0.183 1.128-0.599 2.065-1.248 2.811-0.65 0.746-1.692 1.119-3.127 1.119-1.96 0-3.362-0.956-4.205-2.867-0.547-1.24-0.821-2.771-0.821-4.592 0-1.832 0.388-3.374 1.162-4.625 0.776-1.252 1.995-1.878 3.659-1.878 1.275 0 2.286 0.389 3.033 1.166 0.746 0.777 1.262 1.841 1.547 3.191h2.99c-0.342-2.425-1.196-4.201-2.563-5.323-1.368-1.122-3.117-1.682-5.248-1.682-2.392 0-4.3 0.874-5.724 2.623-1.425 1.748-2.137 3.932-2.137 6.553 0 3.213 0.78 5.714 2.342 7.503 1.56 1.788 3.549 2.683 5.965 2.683 2.061 0 3.739-0.502 5.032-1.504" fill="#000000"/>
    </g>
    <g transform="translate(479.87 289.69)">
     <path d="m0 0c0.749 1.542 1.124 3.257 1.124 5.146 0 1.707-0.27 3.095-0.812 4.165-0.855 1.684-2.332 2.526-4.426 2.526-1.86 0-3.211-0.716-4.056-2.15-0.845-1.435-1.268-3.164-1.268-5.189 0-1.946 0.423-3.568 1.268-4.865s2.186-1.946 4.022-1.946c2.016 0 3.399 0.771 4.148 2.313m1.91 12.164c1.617-1.571 2.427-3.882 2.427-6.933 0-2.948-0.713-5.383-2.139-7.307-1.425-1.924-3.636-2.886-6.635-2.886-2.5 0-4.486 0.851-5.957 2.553-1.47 1.701-2.206 3.986-2.206 6.855 0 3.074 0.776 5.521 2.326 7.343 1.549 1.821 3.631 2.732 6.245 2.732 2.342 0 4.321-0.786 5.939-2.357" fill="#000000"/>
    </g>
    <g transform="translate(487.55 303.68)">
     <path d="m0 0h3.042v-2.598c0.729 0.9 1.39 1.556 1.982 1.966 1.014 0.694 2.164 1.042 3.453 1.042 1.458 0 2.631-0.359 3.52-1.077 0.501-0.41 0.957-1.014 1.367-1.811 0.684 0.979 1.488 1.706 2.409 2.179 0.924 0.472 1.96 0.709 3.112 0.709 2.461 0 4.135-0.889 5.023-2.666 0.479-0.957 0.719-2.244 0.719-3.862v-12.185h-3.196v12.715c0 1.218-0.305 2.056-0.914 2.512-0.611 0.455-1.354 0.683-2.231 0.683-1.208 0-2.247-0.404-3.119-1.213-0.871-0.809-1.308-2.159-1.308-4.051v-10.646h-3.127v11.946c0 1.241-0.148 2.147-0.444 2.717-0.468 0.854-1.339 1.282-2.614 1.282-1.162 0-2.22-0.451-3.171-1.35-0.951-0.901-1.427-2.53-1.427-4.888v-9.707h-3.076v18.303z" fill="#000000"/>
    </g>
    <path d="m193.58 269.49h3.435v-25.105h-3.435v25.105z" fill="#000000"/>
    <g transform="translate(202.04 269.49)">
     <path d="m0 0h4.872l7.219-21.227 7.168 21.227h4.838v-25.105h-3.247v14.816c0 0.514 0.011 1.361 0.034 2.547 0.022 1.184 0.034 2.455 0.034 3.81l-7.168-21.173h-3.37l-7.235 21.173v-0.768c0-0.615 0.017-1.553 0.051-2.812s0.051-2.184 0.051-2.777v-14.816h-3.247v25.105z" fill="#000000"/>
    </g>
    <g transform="translate(249.13 269.49)">
     <path d="m0 0v-2.991h-8.459v-22.114h-3.436v22.114h-8.459v2.991h20.354z" fill="#000000"/>
    </g>
    <path d="m249.28 255.71h8.579v-3.161h-8.579v3.161z" fill="#000000"/>
    <g transform="translate(268.25 269.49)">
     <path d="m0 0v-15.518c0-1.823 0.344-3.338 1.034-4.546 1.022-1.823 2.744-2.735 5.168-2.735 2.905 0 4.88 0.986 5.925 2.957 0.563 1.071 0.844 2.512 0.844 4.324v15.518h3.435v-14.1c0-3.087-0.417-5.462-1.252-7.127-1.532-3.03-4.424-4.544-8.677-4.544s-7.14 1.514-8.66 4.544c-0.835 1.665-1.252 4.04-1.252 7.127v14.1h3.435z" fill="#000000"/>
    </g>
    <g transform="translate(289.01 262.68)">
     <path d="m0 0h2.922v-2.598c0.866 1.072 1.783 1.84 2.752 2.308 0.968 0.467 2.045 0.7 3.23 0.7 2.597 0 4.352-0.905 5.263-2.717 0.501-0.991 0.752-2.41 0.752-4.255v-11.741h-3.127v11.535c0 1.118-0.166 2.018-0.496 2.702-0.546 1.138-1.538 1.709-2.973 1.709-0.73 0-1.328-0.076-1.795-0.223-0.843-0.251-1.584-0.752-2.221-1.504-0.513-0.604-0.846-1.228-1-1.871-0.154-0.645-0.231-1.565-0.231-2.76v-9.588h-3.076v18.303z" fill="#000000"/>
    </g>
    <path d="m308.04 262.6h3.127v-18.218h-3.127v18.218zm0 6.887h3.127v-3.486h-3.127v3.486z" fill="#000000"/>
    <g transform="translate(317.04 262.68)">
     <path d="m0 0 4.888-14.902 5.092 14.902h3.367l-6.89-18.303h-3.278l-6.751 18.303h3.572z" fill="#000000"/>
    </g>
    <g transform="translate(344.43 254.99)">
     <path d="m0 0c-0.125 1.332-0.413 2.397-0.864 3.195-0.836 1.481-2.232 2.222-4.186 2.222-1.401 0-2.576-0.51-3.525-1.529-0.949-1.021-1.452-2.316-1.508-3.888h10.083zm-1.102 7.186c1.212-0.61 2.135-1.399 2.769-2.368 0.611-0.922 1.019-1.999 1.223-3.229 0.181-0.844 0.272-2.188 0.272-4.033h-13.313c0.056-1.863 0.491-3.357 1.305-4.482s2.075-1.687 3.782-1.687c1.593 0 2.865 0.531 3.815 1.595 0.531 0.619 0.908 1.334 1.129 2.147h3.025c-0.08-0.673-0.344-1.422-0.795-2.247-0.45-0.826-0.952-1.502-1.506-2.026-0.927-0.912-2.075-1.526-3.442-1.845-0.736-0.182-1.567-0.274-2.494-0.274-2.264 0-4.183 0.829-5.757 2.487s-2.361 3.979-2.361 6.964c0 2.939 0.793 5.326 2.378 7.161 1.585 1.834 3.657 2.751 6.217 2.751 1.291 0 2.542-0.305 3.753-0.914" fill="#000000"/>
    </g>
    <g transform="translate(351.06 262.68)">
     <path d="m0 0h2.922v-3.161c0.24 0.615 0.826 1.364 1.761 2.247 0.934 0.883 2.01 1.324 3.23 1.324 0.056 0 0.153-0.006 0.29-0.016 0.137-0.012 0.37-0.035 0.701-0.069v-3.247c-0.183 0.034-0.351 0.057-0.504 0.068-0.154 0.011-0.322 0.018-0.504 0.018-1.55 0-2.741-0.499-3.572-1.496-0.832-0.997-1.248-2.145-1.248-3.443v-10.528h-3.076v18.303z" fill="#000000"/>
    </g>
    <g transform="translate(364.34 250.12)">
     <path d="m0 0c0.093-1.025 0.354-1.812 0.785-2.358 0.791-0.992 2.163-1.488 4.116-1.488 1.163 0 2.186 0.248 3.07 0.744s1.326 1.262 1.326 2.299c0 0.785-0.354 1.384-1.06 1.794-0.451 0.25-1.343 0.541-2.674 0.872l-2.484 0.616c-1.586 0.386-2.756 0.82-3.508 1.298-1.343 0.831-2.015 1.983-2.015 3.452 0 1.732 0.632 3.133 1.897 4.205 1.264 1.07 2.964 1.605 5.1 1.605 2.794 0 4.809-0.809 6.044-2.426 0.774-1.025 1.149-2.131 1.127-3.316h-2.906c-0.058 0.691-0.309 1.32-0.752 1.887-0.723 0.804-1.977 1.207-3.761 1.207-1.19 0-2.091-0.222-2.703-0.664-0.612-0.443-0.918-1.028-0.918-1.754 0-0.795 0.402-1.431 1.207-1.908 0.463-0.284 1.149-0.534 2.054-0.751l2.072-0.495c2.252-0.536 3.761-1.053 4.527-1.555 1.197-0.785 1.795-2.023 1.795-3.708 0-1.63-0.626-3.036-1.878-4.222-1.251-1.185-3.157-1.777-5.718-1.777-2.757 0-4.709 0.619-5.857 1.854-1.147 1.236-1.762 2.766-1.843 4.589h2.957z" fill="#000000"/>
    </g>
    <path d="m379.74 262.6h3.127v-18.218h-3.127v18.218zm0 6.887h3.127v-3.486h-3.127v3.486z" fill="#000000"/>
    <g transform="translate(387.74 267.79)">
     <path d="m0 0h3.11v-5.11h2.923v-2.512h-2.923v-11.945c0-0.639 0.217-1.067 0.65-1.283 0.239-0.126 0.637-0.188 1.196-0.188 0.148 0 0.308 0.004 0.479 0.012 0.17 0.007 0.37 0.026 0.598 0.056v-2.443c-0.354-0.103-0.721-0.177-1.102-0.223-0.383-0.045-0.795-0.068-1.24-0.068-1.435 0-2.409 0.368-2.922 1.102-0.513 0.736-0.769 1.69-0.769 2.863v12.117h-2.478v2.512h2.478v5.11z" fill="#000000"/>
    </g>
    <g transform="translate(407.29 270.05)">
     <path d="m0 0-4.563-4.938h-2.358l3.127 4.938h3.794zm1.23-15.056c-0.124 1.332-0.412 2.398-0.864 3.196-0.836 1.48-2.231 2.221-4.185 2.221-1.401 0-2.577-0.509-3.525-1.529-0.949-1.02-1.452-2.315-1.509-3.888h10.083zm-1.101 7.186c1.211-0.609 2.134-1.399 2.768-2.367 0.612-0.922 1.019-1.999 1.223-3.23 0.181-0.844 0.272-2.187 0.272-4.033h-13.313c0.057-1.862 0.492-3.356 1.306-4.481s2.074-1.688 3.781-1.688c1.594 0 2.866 0.531 3.815 1.596 0.532 0.618 0.908 1.334 1.13 2.146h3.025c-0.08-0.673-0.345-1.422-0.795-2.247-0.45-0.826-0.952-1.502-1.506-2.025-0.927-0.912-2.075-1.527-3.443-1.846-0.735-0.182-1.566-0.273-2.493-0.273-2.265 0-4.184 0.829-5.758 2.486-1.574 1.658-2.36 3.979-2.36 6.964 0 2.939 0.792 5.326 2.378 7.161 1.585 1.834 3.657 2.751 6.216 2.751 1.291 0 2.542-0.305 3.754-0.914" fill="#000000"/>
    </g>
    <g transform="translate(428.49 248.4)">
     <path d="m0 0c0.827-1.321 2.153-1.982 3.979-1.982 1.417 0 2.582 0.612 3.494 1.837 0.913 1.225 1.369 2.983 1.369 5.272 0 2.313-0.471 4.025-1.411 5.136-0.942 1.111-2.103 1.667-3.487 1.667-1.541 0-2.791-0.593-3.749-1.778s-1.436-2.928-1.436-5.23c0-1.959 0.414-3.6 1.241-4.922m6.866 13.724c0.545-0.342 1.163-0.941 1.857-1.794v9.245h2.956v-25.191h-2.769v2.547c-0.715-1.129-1.56-1.943-2.537-2.444-0.976-0.501-2.094-0.752-3.353-0.752-2.032 0-3.791 0.857-5.278 2.572-1.487 1.714-2.23 3.996-2.23 6.845 0 2.666 0.677 4.976 2.034 6.93 1.356 1.953 3.294 2.93 5.813 2.93 1.397 0 2.566-0.297 3.507-0.888" fill="#000000"/>
    </g>
    <g transform="translate(456.82 254.99)">
     <path d="m0 0c-0.124 1.332-0.412 2.397-0.864 3.195-0.836 1.481-2.232 2.222-4.186 2.222-1.401 0-2.576-0.51-3.525-1.529-0.948-1.021-1.451-2.316-1.508-3.888h10.083zm-1.102 7.186c1.211-0.61 2.134-1.399 2.769-2.368 0.611-0.922 1.019-1.999 1.223-3.229 0.181-0.844 0.271-2.188 0.271-4.033h-13.312c0.056-1.863 0.492-3.357 1.305-4.482 0.815-1.125 2.075-1.687 3.782-1.687 1.593 0 2.866 0.531 3.815 1.595 0.531 0.619 0.908 1.334 1.129 2.147h3.025c-0.08-0.673-0.344-1.422-0.795-2.247-0.45-0.826-0.952-1.502-1.506-2.026-0.927-0.912-2.075-1.526-3.443-1.845-0.734-0.182-1.565-0.274-2.493-0.274-2.264 0-4.184 0.829-5.757 2.487-1.574 1.658-2.361 3.979-2.361 6.964 0 2.939 0.793 5.326 2.378 7.161 1.586 1.834 3.657 2.751 6.217 2.751 1.291 0 2.542-0.305 3.753-0.914" fill="#000000"/>
    </g>
    <g transform="translate(474.01 269.49)">
     <path d="m0 0h3.4v-22.115h12.596v-2.99h-15.996v25.105z" fill="#000000"/>
    </g>
    <path d="m492.6 262.6h3.127v-18.218h-3.127v18.218zm0 6.887h3.127v-3.486h-3.127v3.486z" fill="#000000"/>
    <path d="m499.95 269.49h3.076v-25.105h-3.076v25.105z" fill="#000000"/>
    <path d="m507.23 269.49h3.076v-25.105h-3.076v25.105z" fill="#000000"/>
    <g transform="translate(526.98 254.99)">
     <path d="m0 0c-0.124 1.332-0.412 2.397-0.864 3.195-0.836 1.481-2.232 2.222-4.186 2.222-1.401 0-2.576-0.51-3.525-1.529-0.948-1.021-1.451-2.316-1.508-3.888h10.083zm-1.102 7.186c1.211-0.61 2.134-1.399 2.769-2.368 0.611-0.922 1.019-1.999 1.223-3.229 0.181-0.844 0.271-2.188 0.271-4.033h-13.312c0.056-1.863 0.492-3.357 1.305-4.482 0.815-1.125 2.075-1.687 3.782-1.687 1.593 0 2.866 0.531 3.815 1.595 0.531 0.619 0.908 1.334 1.129 2.147h3.025c-0.08-0.673-0.344-1.422-0.795-2.247-0.45-0.826-0.952-1.502-1.506-2.026-0.927-0.912-2.075-1.526-3.443-1.845-0.734-0.182-1.565-0.274-2.493-0.274-2.264 0-4.184 0.829-5.757 2.487-1.574 1.658-2.361 3.979-2.361 6.964 0 2.939 0.793 5.326 2.378 7.161 1.586 1.834 3.657 2.751 6.217 2.751 1.291 0 2.542-0.305 3.753-0.914" fill="#000000"/>
    </g>
   </g>
  </g>
 </g>
</svg>
